<?xml version="1.0" encoding="UTF-8" standalone="no"?>
<!DOCTYPE svg PUBLIC "-//W3C//DTD SVG 1.1//EN"
 "http://www.w3.org/Graphics/SVG/1.1/DTD/svg11.dtd">
<!-- Generated by graphviz version 13.1.2 (20250808.2320)
 -->
<!-- Pages: 1 -->
<svg width="2865pt" height="1271pt"
 viewBox="0.00 0.00 2865.00 1271.00" xmlns="http://www.w3.org/2000/svg" xmlns:xlink="http://www.w3.org/1999/xlink">
<g id="graph0" class="graph" transform="scale(4.16667 4.16667) rotate(0) translate(4 301)">
<polygon fill="white" stroke="none" points="-4,4 -4,-301 683.62,-301 683.62,4 -4,4"/>
<!-- Initial [SM01] -->
<g id="node1" class="node">
<title>Initial [SM01]</title>
<ellipse fill="lightblue" stroke="black" cx="360.63" cy="-279" rx="54.06" ry="18"/>
<text xml:space="preserve" text-anchor="middle" x="360.63" y="-274.73" font-family="Arial" font-size="12.00">Initial [SM01]</text>
</g>
<!-- MT01 [SM01] -->
<g id="node2" class="node">
<title>MT01 [SM01]</title>
<ellipse fill="lightblue" stroke="black" cx="203.63" cy="-192" rx="55.49" ry="18"/>
<text xml:space="preserve" text-anchor="middle" x="203.63" y="-187.72" font-family="Arial" font-size="12.00">MT01 [SM01]</text>
</g>
<!-- Initial [SM01]&#45;&gt;MT01 [SM01] -->
<g id="edge1" class="edge">
<title>Initial [SM01]&#45;&gt;MT01 [SM01]</title>
<path fill="none" stroke="black" d="M309.91,-272.29C271.88,-266.92 224.2,-257.51 210.88,-243 205.6,-237.25 203.12,-229.46 202.12,-221.73"/>
<polygon fill="black" stroke="black" points="205.62,-221.68 201.66,-211.85 198.63,-222 205.62,-221.68"/>
<text xml:space="preserve" text-anchor="middle" x="229.26" y="-237.3" font-family="Arial" font-size="6.00">MT01 | MS01</text>
<text xml:space="preserve" text-anchor="middle" x="229.26" y="-229.8" font-family="Arial" font-size="6.00">T: 5.27, E: 5.27</text>
</g>
<!-- Initial [SM01]&#45;&gt;MT01 [SM01] -->
<g id="edge2" class="edge">
<title>Initial [SM01]&#45;&gt;MT01 [SM01]</title>
<path fill="none" stroke="forestgreen" d="M330.46,-263.62C317.82,-257.45 303.04,-250.06 289.88,-243 272.87,-233.87 254.3,-223.2 238.77,-214.07"/>
<polygon fill="forestgreen" stroke="forestgreen" points="240.74,-211.17 230.35,-209.09 237.18,-217.19 240.74,-211.17"/>
<text xml:space="preserve" text-anchor="middle" x="308.26" y="-237.3" font-family="Arial" font-size="6.00" fill="forestgreen">MT01 | MS02</text>
<text xml:space="preserve" text-anchor="middle" x="308.26" y="-229.8" font-family="Arial" font-size="6.00" fill="forestgreen">T: 4.93, E: 4.93</text>
</g>
<!-- DT01 [SM01] -->
<g id="node3" class="node">
<title>DT01 [SM01]</title>
<ellipse fill="lightblue" stroke="black" cx="361.63" cy="-192" rx="55.02" ry="18"/>
<text xml:space="preserve" text-anchor="middle" x="361.63" y="-187.72" font-family="Arial" font-size="12.00">DT01 [SM01]</text>
</g>
<!-- Initial [SM01]&#45;&gt;DT01 [SM01] -->
<g id="edge3" class="edge">
<title>Initial [SM01]&#45;&gt;DT01 [SM01]</title>
<path fill="none" stroke="black" d="M342.55,-261.58C334.43,-252.14 327.53,-239.84 331.88,-228 333.11,-224.66 334.81,-221.43 336.78,-218.36"/>
<polygon fill="black" stroke="black" points="339.56,-220.49 342.84,-210.41 334,-216.24 339.56,-220.49"/>
<text xml:space="preserve" text-anchor="middle" x="350.26" y="-237.3" font-family="Arial" font-size="6.00">DT01 | DS01</text>
<text xml:space="preserve" text-anchor="middle" x="350.26" y="-229.8" font-family="Arial" font-size="6.00">T: 1.96, E: 1.96</text>
</g>
<!-- Initial [SM01]&#45;&gt;DT01 [SM01] -->
<g id="edge4" class="edge">
<title>Initial [SM01]&#45;&gt;DT01 [SM01]</title>
<path fill="none" stroke="black" d="M365.4,-260.69C366.72,-255.09 367.98,-248.82 368.63,-243 369.43,-235.97 369.02,-228.4 368.1,-221.33"/>
<polygon fill="black" stroke="black" points="371.57,-220.85 366.43,-211.59 364.67,-222.04 371.57,-220.85"/>
<text xml:space="preserve" text-anchor="middle" x="387.43" y="-237.3" font-family="Arial" font-size="6.00">DT01 | DS02</text>
<text xml:space="preserve" text-anchor="middle" x="387.43" y="-229.8" font-family="Arial" font-size="6.00">T: 2.03, E: 2.03</text>
</g>
<!-- CT01 [SM01] -->
<g id="node4" class="node">
<title>CT01 [SM01]</title>
<ellipse fill="lightblue" stroke="black" cx="552.63" cy="-192" rx="55.02" ry="18"/>
<text xml:space="preserve" text-anchor="middle" x="552.63" y="-187.72" font-family="Arial" font-size="12.00">CT01 [SM01]</text>
</g>
<!-- Initial [SM01]&#45;&gt;CT01 [SM01] -->
<g id="edge5" class="edge">
<title>Initial [SM01]&#45;&gt;CT01 [SM01]</title>
<path fill="none" stroke="black" d="M392.34,-263.96C424.72,-249.63 475.15,-227.3 510.79,-211.52"/>
<polygon fill="black" stroke="black" points="511.77,-214.92 519.5,-207.67 508.94,-208.51 511.77,-214.92"/>
<text xml:space="preserve" text-anchor="middle" x="486.5" y="-237.3" font-family="Arial" font-size="6.00">CT01 | CS02</text>
<text xml:space="preserve" text-anchor="middle" x="486.5" y="-229.8" font-family="Arial" font-size="6.00">T: 7.16, E: 7.16</text>
</g>
<!-- Initial [SM01]&#45;&gt;CT01 [SM01] -->
<g id="edge6" class="edge">
<title>Initial [SM01]&#45;&gt;CT01 [SM01]</title>
<path fill="none" stroke="black" d="M412.55,-273.6C442.37,-269.21 479.54,-260.46 508.63,-243 518.79,-236.9 527.86,-227.68 535.09,-218.81"/>
<polygon fill="black" stroke="black" points="537.73,-221.12 541.01,-211.04 532.16,-216.88 537.73,-221.12"/>
<text xml:space="preserve" text-anchor="middle" x="545.22" y="-237.3" font-family="Arial" font-size="6.00">CT01 | CS01</text>
<text xml:space="preserve" text-anchor="middle" x="545.22" y="-229.8" font-family="Arial" font-size="6.00">T: 7.35, E: 7.35</text>
</g>
<!-- CT01, MT01 [SM01] -->
<g id="node5" class="node">
<title>CT01, MT01 [SM01]</title>
<ellipse fill="lightblue" stroke="black" cx="319.63" cy="-105" rx="78.39" ry="18"/>
<text xml:space="preserve" text-anchor="middle" x="319.63" y="-100.72" font-family="Arial" font-size="12.00">CT01, MT01 [SM01]</text>
</g>
<!-- MT01 [SM01]&#45;&gt;CT01, MT01 [SM01] -->
<g id="edge7" class="edge">
<title>MT01 [SM01]&#45;&gt;CT01, MT01 [SM01]</title>
<path fill="none" stroke="black" d="M196.16,-174.13C192.74,-163.61 190.84,-150.35 197.88,-141 204.59,-132.09 225.09,-124.75 247.4,-119.13"/>
<polygon fill="black" stroke="black" points="248.05,-122.57 256.97,-116.86 246.43,-115.76 248.05,-122.57"/>
<text xml:space="preserve" text-anchor="middle" x="216.26" y="-150.3" font-family="Arial" font-size="6.00">CT01 | CS01</text>
<text xml:space="preserve" text-anchor="middle" x="216.26" y="-142.8" font-family="Arial" font-size="6.00">T: 7.61, E: 7.61</text>
</g>
<!-- MT01 [SM01]&#45;&gt;CT01, MT01 [SM01] -->
<g id="edge8" class="edge">
<title>MT01 [SM01]&#45;&gt;CT01, MT01 [SM01]</title>
<path fill="none" stroke="black" d="M219.4,-174.65C229.8,-164.34 244.01,-151.11 257.88,-141 264.38,-136.26 271.59,-131.66 278.71,-127.43"/>
<polygon fill="black" stroke="black" points="280.06,-130.69 286.99,-122.68 276.57,-124.62 280.06,-130.69"/>
<text xml:space="preserve" text-anchor="middle" x="276.26" y="-150.3" font-family="Arial" font-size="6.00">CT01 | CS02</text>
<text xml:space="preserve" text-anchor="middle" x="276.26" y="-142.8" font-family="Arial" font-size="6.00">T: 6.84, E: 6.84</text>
</g>
<!-- DT01, MT01 [SM01] -->
<g id="node6" class="node">
<title>DT01, MT01 [SM01]</title>
<ellipse fill="lightblue" stroke="black" cx="141.63" cy="-105" rx="78.39" ry="18"/>
<text xml:space="preserve" text-anchor="middle" x="141.63" y="-100.72" font-family="Arial" font-size="12.00">DT01, MT01 [SM01]</text>
</g>
<!-- MT01 [SM01]&#45;&gt;DT01, MT01 [SM01] -->
<g id="edge9" class="edge">
<title>MT01 [SM01]&#45;&gt;DT01, MT01 [SM01]</title>
<path fill="none" stroke="black" d="M149.16,-188.24C100.46,-184.5 34.33,-175.83 17.88,-156 0,-134.43 26.62,-122.08 59.69,-115.06"/>
<polygon fill="black" stroke="black" points="59.96,-118.57 69.12,-113.25 58.64,-111.7 59.96,-118.57"/>
<text xml:space="preserve" text-anchor="middle" x="36.26" y="-150.3" font-family="Arial" font-size="6.00">DT01 | DS01</text>
<text xml:space="preserve" text-anchor="middle" x="36.26" y="-142.8" font-family="Arial" font-size="6.00">T: 2.07, E: 2.07</text>
</g>
<!-- MT01 [SM01]&#45;&gt;DT01, MT01 [SM01] -->
<g id="edge10" class="edge">
<title>MT01 [SM01]&#45;&gt;DT01, MT01 [SM01]</title>
<path fill="none" stroke="forestgreen" d="M154.14,-183.48C123.14,-177.65 87.34,-168.45 77.88,-156 69.17,-144.53 77.62,-134.24 90.9,-126.02"/>
<polygon fill="forestgreen" stroke="forestgreen" points="92.28,-129.25 99.39,-121.39 88.93,-123.11 92.28,-129.25"/>
<text xml:space="preserve" text-anchor="middle" x="96.26" y="-150.3" font-family="Arial" font-size="6.00" fill="forestgreen">DT01 | DS02</text>
<text xml:space="preserve" text-anchor="middle" x="96.26" y="-142.8" font-family="Arial" font-size="6.00" fill="forestgreen">T: 1.93, E: 1.93</text>
</g>
<!-- DT01 [SM01]&#45;&gt;DT01, MT01 [SM01] -->
<g id="edge11" class="edge">
<title>DT01 [SM01]&#45;&gt;DT01, MT01 [SM01]</title>
<path fill="none" stroke="black" d="M314.81,-182.3C299.76,-179.56 283.01,-176.59 267.63,-174 241.96,-169.68 170.72,-173.96 151.88,-156 146.02,-150.41 143.04,-142.44 141.63,-134.51"/>
<polygon fill="black" stroke="black" points="145.13,-134.3 140.68,-124.69 138.16,-134.98 145.13,-134.3"/>
<text xml:space="preserve" text-anchor="middle" x="170.26" y="-150.3" font-family="Arial" font-size="6.00">MT01 | MS01</text>
<text xml:space="preserve" text-anchor="middle" x="170.26" y="-142.8" font-family="Arial" font-size="6.00">T: 4.96, E: 4.96</text>
</g>
<!-- DT01 [SM01]&#45;&gt;DT01, MT01 [SM01] -->
<g id="edge12" class="edge">
<title>DT01 [SM01]&#45;&gt;DT01, MT01 [SM01]</title>
<path fill="none" stroke="black" d="M341.77,-174.73C325.82,-161.95 304.51,-145.57 294.63,-141 279.74,-134.12 245.02,-125.97 212.41,-119.26"/>
<polygon fill="black" stroke="black" points="213.45,-115.9 202.96,-117.35 212.06,-122.76 213.45,-115.9"/>
<text xml:space="preserve" text-anchor="middle" x="334.92" y="-150.3" font-family="Arial" font-size="6.00">MT01 | MS02</text>
<text xml:space="preserve" text-anchor="middle" x="334.92" y="-142.8" font-family="Arial" font-size="6.00">T: 5.22, E: 5.22</text>
</g>
<!-- CT01, DT01 [SM01] -->
<g id="node7" class="node">
<title>CT01, DT01 [SM01]</title>
<ellipse fill="lightblue" stroke="black" cx="494.63" cy="-105" rx="77.91" ry="18"/>
<text xml:space="preserve" text-anchor="middle" x="494.63" y="-100.72" font-family="Arial" font-size="12.00">CT01, DT01 [SM01]</text>
</g>
<!-- DT01 [SM01]&#45;&gt;CT01, DT01 [SM01] -->
<g id="edge13" class="edge">
<title>DT01 [SM01]&#45;&gt;CT01, DT01 [SM01]</title>
<path fill="none" stroke="black" d="M385.24,-175.41C403.73,-163.23 427.93,-147.33 437.88,-141 444.44,-136.83 451.47,-132.43 458.27,-128.22"/>
<polygon fill="black" stroke="black" points="460.02,-131.25 466.69,-123.02 456.35,-125.3 460.02,-131.25"/>
<text xml:space="preserve" text-anchor="middle" x="456.26" y="-150.3" font-family="Arial" font-size="6.00">CT01 | CS01</text>
<text xml:space="preserve" text-anchor="middle" x="456.26" y="-142.8" font-family="Arial" font-size="6.00">T: 7.34, E: 7.34</text>
</g>
<!-- DT01 [SM01]&#45;&gt;CT01, DT01 [SM01] -->
<g id="edge14" class="edge">
<title>DT01 [SM01]&#45;&gt;CT01, DT01 [SM01]</title>
<path fill="none" stroke="black" d="M412.91,-184.98C434.2,-180.17 457.8,-171.53 474.63,-156 480.89,-150.22 485.23,-142.23 488.22,-134.33"/>
<polygon fill="black" stroke="black" points="491.53,-135.48 491.16,-124.9 484.85,-133.4 491.53,-135.48"/>
<text xml:space="preserve" text-anchor="middle" x="503.22" y="-150.3" font-family="Arial" font-size="6.00">CT01 | CS02</text>
<text xml:space="preserve" text-anchor="middle" x="503.22" y="-142.8" font-family="Arial" font-size="6.00">T: 7.46, E: 7.46</text>
</g>
<!-- CT01 [SM01]&#45;&gt;CT01, MT01 [SM01] -->
<g id="edge15" class="edge">
<title>CT01 [SM01]&#45;&gt;CT01, MT01 [SM01]</title>
<path fill="none" stroke="black" d="M502.49,-184.19C458.02,-177.59 396.81,-167 374.88,-156 368,-152.55 355.56,-141.48 344.23,-130.64"/>
<polygon fill="black" stroke="black" points="346.97,-128.42 337.36,-123.96 342.09,-133.44 346.97,-128.42"/>
<text xml:space="preserve" text-anchor="middle" x="393.26" y="-150.3" font-family="Arial" font-size="6.00">MT01 | MS01</text>
<text xml:space="preserve" text-anchor="middle" x="393.26" y="-142.8" font-family="Arial" font-size="6.00">T: 5.29, E: 5.29</text>
</g>
<!-- CT01 [SM01]&#45;&gt;CT01, MT01 [SM01] -->
<g id="edge16" class="edge">
<title>CT01 [SM01]&#45;&gt;CT01, MT01 [SM01]</title>
<path fill="none" stroke="black" d="M547.81,-173.92C543.74,-162.76 536.76,-148.84 525.63,-141 482.26,-110.46 459.91,-132.03 407.63,-123 401.35,-121.91 394.82,-120.74 388.28,-119.53"/>
<polygon fill="black" stroke="black" points="389.28,-116.16 378.81,-117.76 388,-123.04 389.28,-116.16"/>
<text xml:space="preserve" text-anchor="middle" x="557.35" y="-150.3" font-family="Arial" font-size="6.00">MT01 | MS02</text>
<text xml:space="preserve" text-anchor="middle" x="557.35" y="-142.8" font-family="Arial" font-size="6.00">T: 5.30, E: 5.30</text>
</g>
<!-- CT01 [SM01]&#45;&gt;CT01, DT01 [SM01] -->
<g id="edge17" class="edge">
<title>CT01 [SM01]&#45;&gt;CT01, DT01 [SM01]</title>
<path fill="none" stroke="black" d="M578.74,-175.76C591.85,-166.12 603.29,-153.2 594.63,-141 588.13,-131.83 579.03,-125.04 568.94,-120.03"/>
<polygon fill="black" stroke="black" points="570.55,-116.91 559.98,-116.17 567.78,-123.34 570.55,-116.91"/>
<text xml:space="preserve" text-anchor="middle" x="616.02" y="-150.3" font-family="Arial" font-size="6.00">DT01 | DS01</text>
<text xml:space="preserve" text-anchor="middle" x="616.02" y="-142.8" font-family="Arial" font-size="6.00">T: 2.14, E: 2.14</text>
</g>
<!-- CT01 [SM01]&#45;&gt;CT01, DT01 [SM01] -->
<g id="edge18" class="edge">
<title>CT01 [SM01]&#45;&gt;CT01, DT01 [SM01]</title>
<path fill="none" stroke="black" d="M597.92,-181.47C625.87,-173.46 653.73,-160.21 638.63,-141 629.89,-129.88 602.09,-121.86 573.22,-116.32"/>
<polygon fill="black" stroke="black" points="574.09,-112.92 563.63,-114.59 572.85,-119.81 574.09,-112.92"/>
<text xml:space="preserve" text-anchor="middle" x="661.24" y="-150.3" font-family="Arial" font-size="6.00">DT01 | DS02</text>
<text xml:space="preserve" text-anchor="middle" x="661.24" y="-142.8" font-family="Arial" font-size="6.00">T: 2.13, E: 2.13</text>
</g>
<!-- CT01, DT01, MT01 [SM01] -->
<g id="node8" class="node">
<title>CT01, DT01, MT01 [SM01]</title>
<ellipse fill="lightblue" stroke="black" cx="333.63" cy="-18" rx="101.29" ry="18"/>
<text xml:space="preserve" text-anchor="middle" x="333.63" y="-13.72" font-family="Arial" font-size="12.00">CT01, DT01, MT01 [SM01]</text>
</g>
<!-- CT01, MT01 [SM01]&#45;&gt;CT01, DT01, MT01 [SM01] -->
<g id="edge19" class="edge">
<title>CT01, MT01 [SM01]&#45;&gt;CT01, DT01, MT01 [SM01]</title>
<path fill="none" stroke="black" d="M309.11,-86.72C304.55,-77.02 301.04,-64.74 304.88,-54 305.98,-50.95 307.46,-47.97 309.19,-45.12"/>
<polygon fill="black" stroke="black" points="311.86,-47.41 314.87,-37.25 306.18,-43.31 311.86,-47.41"/>
<text xml:space="preserve" text-anchor="middle" x="323.26" y="-63.3" font-family="Arial" font-size="6.00">DT01 | DS01</text>
<text xml:space="preserve" text-anchor="middle" x="323.26" y="-55.8" font-family="Arial" font-size="6.00">T: 1.94, E: 1.94</text>
</g>
<!-- CT01, MT01 [SM01]&#45;&gt;CT01, DT01, MT01 [SM01] -->
<g id="edge20" class="edge">
<title>CT01, MT01 [SM01]&#45;&gt;CT01, DT01, MT01 [SM01]</title>
<path fill="none" stroke="black" d="M332.9,-87.12C336.45,-81.65 339.8,-75.34 341.63,-69 343.62,-62.1 343.53,-54.51 342.47,-47.37"/>
<polygon fill="black" stroke="black" points="345.94,-46.87 340.42,-37.83 339.1,-48.34 345.94,-46.87"/>
<text xml:space="preserve" text-anchor="middle" x="361.59" y="-63.3" font-family="Arial" font-size="6.00">DT01 | DS02</text>
<text xml:space="preserve" text-anchor="middle" x="361.59" y="-55.8" font-family="Arial" font-size="6.00">T: 2.02, E: 2.02</text>
</g>
<!-- DT01, MT01 [SM01]&#45;&gt;CT01, DT01, MT01 [SM01] -->
<g id="edge21" class="edge">
<title>DT01, MT01 [SM01]&#45;&gt;CT01, DT01, MT01 [SM01]</title>
<path fill="none" stroke="forestgreen" d="M150.38,-86.63C156.8,-75.63 166.54,-62.02 178.88,-54 195.83,-42.98 215.79,-35.4 235.63,-30.2"/>
<polygon fill="forestgreen" stroke="forestgreen" points="236.25,-33.65 245.15,-27.9 234.61,-26.84 236.25,-33.65"/>
<text xml:space="preserve" text-anchor="middle" x="197.26" y="-63.3" font-family="Arial" font-size="6.00" fill="forestgreen">CT01 | CS02</text>
<text xml:space="preserve" text-anchor="middle" x="197.26" y="-55.8" font-family="Arial" font-size="6.00" fill="forestgreen">T: 6.69, E: 6.69</text>
</g>
<!-- DT01, MT01 [SM01]&#45;&gt;CT01, DT01, MT01 [SM01] -->
<g id="edge22" class="edge">
<title>DT01, MT01 [SM01]&#45;&gt;CT01, DT01, MT01 [SM01]</title>
<path fill="none" stroke="black" d="M176.4,-88.61C207.35,-74.91 252.87,-54.76 286.97,-39.66"/>
<polygon fill="black" stroke="black" points="288.05,-43.01 295.78,-35.76 285.22,-36.61 288.05,-43.01"/>
<text xml:space="preserve" text-anchor="middle" x="267.5" y="-63.3" font-family="Arial" font-size="6.00">CT01 | CS01</text>
<text xml:space="preserve" text-anchor="middle" x="267.5" y="-55.8" font-family="Arial" font-size="6.00">T: 7.11, E: 7.11</text>
</g>
<!-- CT01, DT01 [SM01]&#45;&gt;CT01, DT01, MT01 [SM01] -->
<g id="edge23" class="edge">
<title>CT01, DT01 [SM01]&#45;&gt;CT01, DT01, MT01 [SM01]</title>
<path fill="none" stroke="black" d="M464.35,-88.01C439.04,-74.65 402.7,-55.46 374.76,-40.71"/>
<polygon fill="black" stroke="black" points="376.7,-37.78 366.22,-36.2 373.43,-43.97 376.7,-37.78"/>
<text xml:space="preserve" text-anchor="middle" x="442.15" y="-63.3" font-family="Arial" font-size="6.00">MT01 | MS01</text>
<text xml:space="preserve" text-anchor="middle" x="442.15" y="-55.8" font-family="Arial" font-size="6.00">T: 4.80, E: 4.80</text>
</g>
<!-- CT01, DT01 [SM01]&#45;&gt;CT01, DT01, MT01 [SM01] -->
<g id="edge24" class="edge">
<title>CT01, DT01 [SM01]&#45;&gt;CT01, DT01, MT01 [SM01]</title>
<path fill="none" stroke="black" d="M488.28,-86.8C483.41,-75.88 475.63,-62.28 464.63,-54 452.38,-44.77 437.87,-37.97 423.05,-32.96"/>
<polygon fill="black" stroke="black" points="424.28,-29.67 413.69,-30.07 422.21,-36.36 424.28,-29.67"/>
<text xml:space="preserve" text-anchor="middle" x="495.97" y="-63.3" font-family="Arial" font-size="6.00">MT01 | MS02</text>
<text xml:space="preserve" text-anchor="middle" x="495.97" y="-55.8" font-family="Arial" font-size="6.00">T: 5.31, E: 5.31</text>
</g>
</g>
</svg>
